<mxfile host="app.diagrams.net" agent="Mozilla/5.0 (X11; Ubuntu; Linux x86_64; rv:138.0) Gecko/20100101 Firefox/138.0" version="27.0.4">
  <diagram name="Page-1" id="XELJx8Akf4w9SzdUp4pM">
    <mxGraphModel dx="1356" dy="763" grid="1" gridSize="10" guides="1" tooltips="1" connect="1" arrows="1" fold="1" page="1" pageScale="1" pageWidth="850" pageHeight="1100" math="0" shadow="0">
      <root>
        <mxCell id="0" />
        <mxCell id="1" parent="0" />
        <mxCell id="Dt4oyqQ2EJwhduDiY_40-5" style="edgeStyle=orthogonalEdgeStyle;rounded=0;orthogonalLoop=1;jettySize=auto;html=1;exitX=1;exitY=0.5;exitDx=0;exitDy=0;entryX=0;entryY=0.5;entryDx=0;entryDy=0;dashed=1;" edge="1" parent="1" source="Dt4oyqQ2EJwhduDiY_40-1" target="Dt4oyqQ2EJwhduDiY_40-2">
          <mxGeometry relative="1" as="geometry" />
        </mxCell>
        <mxCell id="Dt4oyqQ2EJwhduDiY_40-1" value="Running in foreground" style="rounded=1;whiteSpace=wrap;html=1;fillColor=#f8cecc;strokeColor=#b85450;" vertex="1" parent="1">
          <mxGeometry x="160" y="250" width="120" height="60" as="geometry" />
        </mxCell>
        <mxCell id="Dt4oyqQ2EJwhduDiY_40-2" value="Terminated" style="rounded=1;whiteSpace=wrap;html=1;fillColor=#647687;fontColor=#ffffff;strokeColor=#314354;" vertex="1" parent="1">
          <mxGeometry x="600" y="250" width="120" height="60" as="geometry" />
        </mxCell>
        <mxCell id="Dt4oyqQ2EJwhduDiY_40-8" style="edgeStyle=orthogonalEdgeStyle;rounded=0;orthogonalLoop=1;jettySize=auto;html=1;exitX=0.5;exitY=0;exitDx=0;exitDy=0;entryX=0.5;entryY=1;entryDx=0;entryDy=0;" edge="1" parent="1" source="Dt4oyqQ2EJwhduDiY_40-3" target="Dt4oyqQ2EJwhduDiY_40-1">
          <mxGeometry relative="1" as="geometry" />
        </mxCell>
        <mxCell id="Dt4oyqQ2EJwhduDiY_40-14" style="edgeStyle=orthogonalEdgeStyle;rounded=0;orthogonalLoop=1;jettySize=auto;html=1;exitX=1;exitY=0.75;exitDx=0;exitDy=0;entryX=0;entryY=0.75;entryDx=0;entryDy=0;" edge="1" parent="1" source="Dt4oyqQ2EJwhduDiY_40-3" target="Dt4oyqQ2EJwhduDiY_40-4">
          <mxGeometry relative="1" as="geometry" />
        </mxCell>
        <mxCell id="Dt4oyqQ2EJwhduDiY_40-3" value="Running in background" style="rounded=1;whiteSpace=wrap;html=1;fillColor=#fff2cc;strokeColor=#d6b656;" vertex="1" parent="1">
          <mxGeometry x="160" y="470" width="120" height="60" as="geometry" />
        </mxCell>
        <mxCell id="Dt4oyqQ2EJwhduDiY_40-12" style="edgeStyle=orthogonalEdgeStyle;rounded=0;orthogonalLoop=1;jettySize=auto;html=1;exitX=0.5;exitY=0;exitDx=0;exitDy=0;entryX=0.5;entryY=1;entryDx=0;entryDy=0;dashed=1;" edge="1" parent="1" source="Dt4oyqQ2EJwhduDiY_40-4" target="Dt4oyqQ2EJwhduDiY_40-2">
          <mxGeometry relative="1" as="geometry" />
        </mxCell>
        <mxCell id="Dt4oyqQ2EJwhduDiY_40-13" style="edgeStyle=orthogonalEdgeStyle;rounded=0;orthogonalLoop=1;jettySize=auto;html=1;exitX=0;exitY=0.5;exitDx=0;exitDy=0;entryX=1;entryY=0.5;entryDx=0;entryDy=0;" edge="1" parent="1" source="Dt4oyqQ2EJwhduDiY_40-4" target="Dt4oyqQ2EJwhduDiY_40-3">
          <mxGeometry relative="1" as="geometry" />
        </mxCell>
        <mxCell id="Dt4oyqQ2EJwhduDiY_40-4" value="Stopped in background" style="rounded=1;whiteSpace=wrap;html=1;fillColor=#76608a;fontColor=#ffffff;strokeColor=#432D57;" vertex="1" parent="1">
          <mxGeometry x="600" y="470" width="120" height="60" as="geometry" />
        </mxCell>
        <mxCell id="Dt4oyqQ2EJwhduDiY_40-6" value="1. &lt;i&gt;Control-C&lt;/i&gt; (SIGINT)" style="text;html=1;align=center;verticalAlign=middle;whiteSpace=wrap;rounded=0;" vertex="1" parent="1">
          <mxGeometry x="358" y="240" width="135" height="30" as="geometry" />
        </mxCell>
        <mxCell id="Dt4oyqQ2EJwhduDiY_40-7" value="2. Control-\ (SIGQUIT)" style="text;html=1;align=center;verticalAlign=middle;whiteSpace=wrap;rounded=0;" vertex="1" parent="1">
          <mxGeometry x="358" y="290" width="135" height="30" as="geometry" />
        </mxCell>
        <mxCell id="Dt4oyqQ2EJwhduDiY_40-9" value="" style="endArrow=classic;html=1;rounded=0;exitX=1;exitY=0;exitDx=0;exitDy=0;entryX=0;entryY=1;entryDx=0;entryDy=0;dashed=1;" edge="1" parent="1" source="Dt4oyqQ2EJwhduDiY_40-3" target="Dt4oyqQ2EJwhduDiY_40-2">
          <mxGeometry width="50" height="50" relative="1" as="geometry">
            <mxPoint x="400" y="380" as="sourcePoint" />
            <mxPoint x="450" y="330" as="targetPoint" />
          </mxGeometry>
        </mxCell>
        <mxCell id="Dt4oyqQ2EJwhduDiY_40-10" value="" style="endArrow=classic;html=1;rounded=0;exitX=1;exitY=0.5;exitDx=0;exitDy=0;entryX=0;entryY=0;entryDx=0;entryDy=0;" edge="1" parent="1" source="Dt4oyqQ2EJwhduDiY_40-1" target="Dt4oyqQ2EJwhduDiY_40-4">
          <mxGeometry width="50" height="50" relative="1" as="geometry">
            <mxPoint x="400" y="380" as="sourcePoint" />
            <mxPoint x="450" y="330" as="targetPoint" />
          </mxGeometry>
        </mxCell>
        <mxCell id="Dt4oyqQ2EJwhduDiY_40-11" value="" style="endArrow=classic;html=1;rounded=0;entryX=1;entryY=1;entryDx=0;entryDy=0;exitX=0;exitY=0.5;exitDx=0;exitDy=0;" edge="1" parent="1" source="Dt4oyqQ2EJwhduDiY_40-4" target="Dt4oyqQ2EJwhduDiY_40-1">
          <mxGeometry width="50" height="50" relative="1" as="geometry">
            <mxPoint x="400" y="380" as="sourcePoint" />
            <mxPoint x="450" y="330" as="targetPoint" />
          </mxGeometry>
        </mxCell>
        <mxCell id="Dt4oyqQ2EJwhduDiY_40-15" value="&lt;i&gt;fg&lt;/i&gt;" style="text;html=1;align=center;verticalAlign=middle;whiteSpace=wrap;rounded=0;rotation=-89;" vertex="1" parent="1">
          <mxGeometry x="170" y="380" width="60" height="30" as="geometry" />
        </mxCell>
        <mxCell id="Dt4oyqQ2EJwhduDiY_40-16" value="fg (SIGCONT)" style="text;html=1;align=center;verticalAlign=middle;whiteSpace=wrap;rounded=0;rotation=30;fontStyle=2" vertex="1" parent="1">
          <mxGeometry x="289.33" y="342.5" width="70" height="30" as="geometry" />
        </mxCell>
        <mxCell id="Dt4oyqQ2EJwhduDiY_40-18" value="Control-Z (SIGTSTP)" style="text;html=1;align=center;verticalAlign=middle;whiteSpace=wrap;rounded=0;rotation=30;fontStyle=2" vertex="1" parent="1">
          <mxGeometry x="520" y="400" width="70" height="30" as="geometry" />
        </mxCell>
        <mxCell id="Dt4oyqQ2EJwhduDiY_40-19" value="&lt;i&gt;bg &lt;/i&gt;(SIGCONT)" style="text;html=1;align=center;verticalAlign=middle;whiteSpace=wrap;rounded=0;" vertex="1" parent="1">
          <mxGeometry x="395.5" y="470" width="60" height="30" as="geometry" />
        </mxCell>
        <mxCell id="Dt4oyqQ2EJwhduDiY_40-20" value="&lt;i&gt;kill&lt;/i&gt;" style="text;html=1;align=center;verticalAlign=middle;whiteSpace=wrap;rounded=0;rotation=-89;" vertex="1" parent="1">
          <mxGeometry x="610" y="370" width="60" height="30" as="geometry" />
        </mxCell>
        <mxCell id="Dt4oyqQ2EJwhduDiY_40-22" value="&lt;i&gt;&lt;b&gt;command&lt;/b&gt;&lt;/i&gt;" style="text;html=1;align=center;verticalAlign=middle;whiteSpace=wrap;rounded=0;" vertex="1" parent="1">
          <mxGeometry x="70" y="200" width="60" height="30" as="geometry" />
        </mxCell>
        <mxCell id="Dt4oyqQ2EJwhduDiY_40-23" value="&lt;i&gt;&lt;b&gt;command&lt;/b&gt;&lt;/i&gt;" style="text;html=1;align=center;verticalAlign=middle;whiteSpace=wrap;rounded=0;" vertex="1" parent="1">
          <mxGeometry x="70" y="420" width="60" height="30" as="geometry" />
        </mxCell>
        <mxCell id="Dt4oyqQ2EJwhduDiY_40-26" value="&lt;div&gt;1. &lt;i&gt;kill - STOP (&lt;/i&gt;SIGSTOP)&lt;/div&gt;&lt;div&gt;2. Terminal read (SIGTTIN)&lt;/div&gt;&lt;div&gt;3. Terminal write (+TOSTOP) (SIGTTOU)&lt;/div&gt;" style="text;html=1;align=center;verticalAlign=middle;whiteSpace=wrap;rounded=0;" vertex="1" parent="1">
          <mxGeometry x="289.33" y="540" width="270" height="80" as="geometry" />
        </mxCell>
        <mxCell id="Dt4oyqQ2EJwhduDiY_40-27" value="" style="endArrow=classic;html=1;rounded=0;exitX=0.5;exitY=1;exitDx=0;exitDy=0;entryX=0;entryY=0;entryDx=0;entryDy=0;" edge="1" parent="1" source="Dt4oyqQ2EJwhduDiY_40-22" target="Dt4oyqQ2EJwhduDiY_40-1">
          <mxGeometry width="50" height="50" relative="1" as="geometry">
            <mxPoint x="600" y="530" as="sourcePoint" />
            <mxPoint x="650" y="480" as="targetPoint" />
          </mxGeometry>
        </mxCell>
        <mxCell id="Dt4oyqQ2EJwhduDiY_40-28" value="" style="endArrow=classic;html=1;rounded=0;exitX=0.5;exitY=1;exitDx=0;exitDy=0;entryX=0;entryY=0;entryDx=0;entryDy=0;" edge="1" parent="1">
          <mxGeometry width="50" height="50" relative="1" as="geometry">
            <mxPoint x="100" y="450" as="sourcePoint" />
            <mxPoint x="160" y="470" as="targetPoint" />
          </mxGeometry>
        </mxCell>
      </root>
    </mxGraphModel>
  </diagram>
</mxfile>
